<svg width="512" height="512" viewBox="0 0 512 512" fill="none" xmlns="http://www.w3.org/2000/svg">
<rect width="512" height="512" fill="black"/>
<path d="M319.674 125.391C320.853 131.355 303.756 183.84 282.531 241.693C260.717 300.142 237.723 362.17 231.238 379.466C221.805 405.709 217.088 411.077 207.065 409.287C199.99 408.095 193.505 402.727 192.326 397.359C191.147 391.991 209.424 335.331 232.417 272.11C294.912 103.323 290.785 111.077 305.524 113.462C312.01 114.655 318.495 120.023 319.674 125.391ZM164.026 188.015C166.974 195.172 158.72 207.697 136.906 229.764L105.658 261.971L136.906 291.792C168.743 321.613 171.691 329.963 154.593 340.699C147.518 345.47 136.316 338.91 103.3 309.089C80.3064 288.214 61.4399 266.743 61.4399 261.375C61.4399 250.043 137.495 178.472 150.466 177.876C155.772 177.876 162.257 182.647 164.026 188.015ZM408.7 214.854C431.694 235.132 450.56 256.603 450.56 261.971C450.56 273.303 372.736 344.874 360.355 344.874C355.638 344.874 349.743 340.102 347.974 334.735C345.026 327.578 353.28 315.053 375.094 292.985L406.342 260.778L375.684 231.554C358.586 215.45 344.436 199.943 344.436 196.961C344.436 190.997 356.817 177.876 362.713 177.876C365.072 177.876 385.707 194.576 408.7 214.854Z" fill="white"/>
</svg>
